# xmcd CD database file
#
# Track frame offsets:
#	187
#	16260
#	30372
#
# Disc length: 618 seconds
#
# Revision: 0
# Processed by: cddbd v1.5PL3 Copyright (c) Steve Scherf et al.
# Submitted via: CDex 1.40Release
#
DISCID=13026803
DTITLE=山本まさゆき - 絶叫カラオケマンの歌
DYEAR=1992
DGENRE=アニメ
TTITLE0=絶叫カラオケマンの歌
TTITLE1=ディスコ・キラキラスター
TTITLE2=絶叫カラオケマンの歌 （オリジナル・カラオケ）
EXTD=YEAR: 1992
EXTT0=
EXTT1=
EXTT2=
PLAYORDER=
